# xmcd CD database file
#
# Track frame offsets:
#	150
#	13500
#	27380
#	35905
#	49162
#	68727
#	85092
#	94532
#	104215
#	114502
#	130972
#	144182
#	155902
#	166095
#	183622
#	193960
#	207367
#	217337
#
# Disc length: 3084 seconds
#
# Revision: 1
# Processed by: cddbd v1.5.2PL0 Copyright (c) Steve Scherf et al.
# Submitted via: CDex 1.86
#
DISCID=100c0a12
DTITLE=Foster And Allen - Foster and Allen's Christmas Collection
DYEAR=1990
DGENRE=Christmas
TTITLE0=Silent Night
TTITLE1=An Old Christmas Card
TTITLE2=Rudolph The Red Nosed Reindeer
TTITLE3=The Greatest Gift Of All
TTITLE4=Christmas Time In Ireland
TTITLE5=White Christmas
TTITLE6=Jingle Bells
TTITLE7=Winter Wonderland
TTITLE8=Sleigh Ride
TTITLE9=Mary's Boy Child
TTITLE10=Silver Bells
TTITLE11=The Christmas Polka
TTITLE12=Blue Christmas
TTITLE13=Jamie's Christmas Song
TTITLE14=Snowflake
TTITLE15=Let It Stay White
TTITLE16=Christmas Medley
TTITLE17=At This Time Of Year
EXTD=YEAR: 1990
EXTT0=
EXTT1=
EXTT2=
EXTT3=
EXTT4=
EXTT5=
EXTT6=
EXTT7=
EXTT8=
EXTT9=
EXTT10=
EXTT11=
EXTT12=
EXTT13=
EXTT14=
EXTT15=
EXTT16=
EXTT17=
PLAYORDER=
